<?xml version="1.0" encoding="UTF-8"?>
<svg xmlns="http://www.w3.org/2000/svg" style="display: none;">
    <!-- Outdated Processes Icon -->
    <symbol id="icon-outdated" viewBox="0 0 24 24">
        <path d="M19 3H5C3.9 3 3 3.9 3 5V19C3 20.1 3.9 21 5 21H19C20.1 21 21 20.1 21 19V5C21 3.9 20.1 3 19 3ZM19 19H5V5H19V19Z" fill="currentColor"/>
        <path d="M7 7H17V9H7V7ZM7 11H17V13H7V11ZM7 15H13V17H7V15Z" fill="currentColor"/>
    </symbol>

    <!-- Inefficient Communication Icon -->
    <symbol id="icon-communication" viewBox="0 0 24 24">
        <path d="M20 2H4C2.9 2 2 2.9 2 4V22L6 18H20C21.1 18 22 17.1 22 16V4C22 2.9 21.1 2 20 2ZM20 16H5.2L4 17.2V4H20V16Z" fill="currentColor"/>
        <path d="M7 9H17V11H7V9ZM7 12H13V14H7V12Z" fill="currentColor"/>
    </symbol>

    <!-- Fragmented Workflows Icon -->
    <symbol id="icon-workflow" viewBox="0 0 24 24">
        <path d="M19 3H5C3.9 3 3 3.9 3 5V19C3 20.1 3.9 21 5 21H19C20.1 21 21 20.1 21 19V5C21 3.9 20.1 3 19 3ZM19 19H5V5H19V19Z" fill="currentColor"/>
        <path d="M7 7H11V9H7V7ZM13 7H17V9H13V7ZM7 11H11V13H7V11ZM13 11H17V13H13V11ZM7 15H11V17H7V15ZM13 15H17V17H13V15Z" fill="currentColor"/>
    </symbol>

    <!-- Administrative Load Icon -->
    <symbol id="icon-admin" viewBox="0 0 24 24">
        <path d="M11.99 2C6.47 2 2 6.48 2 12C2 17.52 6.47 22 11.99 22C17.52 22 22 17.52 22 12C22 6.48 17.52 2 11.99 2ZM12 20C7.58 20 4 16.42 4 12C4 7.58 7.58 4 12 4C16.42 4 20 7.58 20 12C20 16.42 16.42 20 12 20Z" fill="currentColor"/>
        <path d="M12.5 7H11V13L16.25 16.15L17 14.92L12.5 12.25V7Z" fill="currentColor"/>
    </symbol>

    <!-- Cognitive Load Icon -->
    <symbol id="icon-cognitive" viewBox="0 0 24 24">
        <path d="M12 2C6.48 2 2 6.48 2 12C2 17.52 6.48 22 12 22C17.52 22 22 17.52 22 12C22 6.48 17.52 2 12 2ZM12 20C7.59 20 4 16.41 4 12C4 7.59 7.59 4 12 4C16.41 4 20 7.59 20 12C20 16.41 16.41 20 12 20Z" fill="currentColor"/>
        <path d="M12 6C8.69 6 6 8.69 6 12C6 15.31 8.69 18 12 18C15.31 18 18 15.31 18 12C18 8.69 15.31 6 12 6ZM12 16C9.79 16 8 14.21 8 12C8 9.79 9.79 8 12 8C14.21 8 16 9.79 16 12C16 14.21 14.21 16 12 16Z" fill="currentColor"/>
    </symbol>

    <!-- Headcount Costs Icon -->
    <symbol id="icon-headcount" viewBox="0 0 24 24">
        <path d="M16 11C17.66 11 18.99 9.66 18.99 8C18.99 6.34 17.66 5 16 5C14.34 5 13 6.34 13 8C13 9.66 14.34 11 16 11ZM8 11C9.66 11 10.99 9.66 10.99 8C10.99 6.34 9.66 5 8 5C6.34 5 5 6.34 5 8C5 9.66 6.34 11 8 11ZM8 13C5.67 13 1 14.17 1 16.5V19H15V16.5C15 14.17 10.33 13 8 13ZM16 13C15.71 13 15.38 13.02 15.03 13.05C16.19 13.89 17 15.02 17 16.5V19H23V16.5C23 14.17 18.33 13 16 13Z" fill="currentColor"/>
    </symbol>

    <!-- AI-Powered Insights Icon -->
    <symbol id="icon-ai" viewBox="0 0 24 24">
        <path d="M12 2C6.48 2 2 6.48 2 12C2 17.52 6.48 22 12 22C17.52 22 22 17.52 22 12C22 6.48 17.52 2 12 2ZM12 20C7.59 20 4 16.41 4 12C4 7.59 7.59 4 12 4C16.41 4 20 7.59 20 12C20 16.41 16.41 20 12 20Z" fill="currentColor"/>
        <path d="M12 6C8.69 6 6 8.69 6 12C6 15.31 8.69 18 12 18C15.31 18 18 15.31 18 12C18 8.69 15.31 6 12 6ZM12 16C9.79 16 8 14.21 8 12C8 9.79 9.79 8 12 8C14.21 8 16 9.79 16 12C16 14.21 14.21 16 12 16Z" fill="currentColor"/>
        <path d="M12 10C10.9 10 10 10.9 10 12C10 13.1 10.9 14 12 14C13.1 14 14 13.1 14 12C14 10.9 13.1 10 12 10Z" fill="currentColor"/>
    </symbol>

    <!-- Hybrid Recommendation Icon -->
    <symbol id="icon-hybrid" viewBox="0 0 24 24">
        <path d="M19 3H5C3.9 3 3 3.9 3 5V19C3 20.1 3.9 21 5 21H19C20.1 21 21 20.1 21 19V5C21 3.9 20.1 3 19 3ZM19 19H5V5H19V19Z" fill="currentColor"/>
        <path d="M7 7H17V9H7V7ZM7 11H17V13H7V11ZM7 15H17V17H7V15Z" fill="currentColor"/>
        <path d="M9 8H11V10H9V8ZM9 12H11V14H9V12ZM9 16H11V18H9V16Z" fill="currentColor"/>
    </symbol>

    <!-- Dual Platform Icon -->
    <symbol id="icon-platform" viewBox="0 0 24 24">
        <path d="M17 1.01L7 1C5.9 1 5 1.9 5 3V21C5 22.1 5.9 23 7 23H17C18.1 23 19 22.1 19 21V3C19 1.9 18.1 1.01 17 1.01ZM17 19H7V5H17V19Z" fill="currentColor"/>
        <path d="M12 17C12.55 17 13 16.55 13 16C13 15.45 12.55 15 12 15C11.45 15 11 15.45 11 16C11 16.55 11.45 17 12 17Z" fill="currentColor"/>
    </symbol>

    <!-- Seamless Integration Icon -->
    <symbol id="icon-integration" viewBox="0 0 24 24">
        <path d="M19 3H5C3.9 3 3 3.9 3 5V19C3 20.1 3.9 21 5 21H19C20.1 21 21 20.1 21 19V5C21 3.9 20.1 3 19 3ZM19 19H5V5H19V19Z" fill="currentColor"/>
        <path d="M7 7H17V9H7V7ZM7 11H17V13H7V11ZM7 15H17V17H7V15Z" fill="currentColor"/>
        <path d="M9 8H11V10H9V8ZM9 12H11V14H9V12ZM9 16H11V18H9V16Z" fill="currentColor"/>
    </symbol>

    <!-- White-Label Tech Icon -->
    <symbol id="icon-whitelabel" viewBox="0 0 24 24">
        <path d="M12 2C6.48 2 2 6.48 2 12C2 17.52 6.48 22 12 22C17.52 22 22 17.52 22 12C22 6.48 17.52 2 12 2ZM12 20C7.59 20 4 16.41 4 12C4 7.59 7.59 4 12 4C16.41 4 20 7.59 20 12C20 16.41 16.41 20 12 20Z" fill="currentColor"/>
        <path d="M12 6C8.69 6 6 8.69 6 12C6 15.31 8.69 18 12 18C15.31 18 18 15.31 18 12C18 8.69 15.31 6 12 6ZM12 16C9.79 16 8 14.21 8 12C8 9.79 9.79 8 12 8C14.21 8 16 9.79 16 12C16 14.21 14.21 16 12 16Z" fill="currentColor"/>
        <path d="M12 10C10.9 10 10 10.9 10 12C10 13.1 10.9 14 12 14C13.1 14 14 13.1 14 12C14 10.9 13.1 10 12 10Z" fill="currentColor"/>
    </symbol>
</svg> 